{"glyphs":{"0":{"ha":804,"x_min":0,"x_max":0,"o":"m 735 328 b 401 669 735 524 585 669 b 69 328 218 669 69 524 b 401 -14 69 132 218 -14 b 735 328 585 -14 735 132 z m 678 328 b 401 39 678 167 563 39 b 126 328 240 39 126 167 b 401 617 126 489 240 617 b 678 328 563 617 678 489 z "},"1":{"ha":428,"x_min":0,"x_max":0,"o":"m 228 594 l 228 0 l 283 0 l 283 669 l 63 578 l 67 524 z "},"2":{"ha":586,"x_min":0,"x_max":0,"o":"m 68 0 l 538 0 l 538 54 l 138 54 b 506 475 331 210 506 321 b 289 669 506 586 417 669 b 68 583 206 669 133 635 l 89 535 b 286 617 146 581 215 617 b 446 467 382 617 446 550 b 68 60 446 351 335 264 z "},"3":{"ha":557,"x_min":0,"x_max":0,"o":"m 289 226 b 496 464 400 267 496 353 b 264 669 496 588 404 669 b 26 576 179 669 86 626 l 49 531 b 261 617 104 576 183 617 b 438 458 365 617 438 563 b 144 217 438 347 335 265 l 144 174 b 267 188 183 183 226 188 b 469 0 385 188 469 117 b 246 -200 469 -121 374 -200 b 54 -147 168 -200 97 -174 l 32 -199 b 242 -253 83 -231 165 -253 b 528 6 397 -253 528 -146 b 289 226 528 132 431 226 z "},"4":{"ha":664,"x_min":0,"x_max":0,"o":"m 508 29 l 644 29 l 640 82 l 508 82 l 508 678 l 460 678 l 15 79 l 26 29 l 451 29 l 451 -256 l 508 -256 z m 451 582 l 451 82 l 78 82 z "},"5":{"ha":568,"x_min":0,"x_max":0,"o":"m 117 279 l 163 603 l 510 603 l 506 657 l 115 657 l 63 247 l 88 221 b 247 249 135 239 169 249 b 472 36 385 249 472 158 b 235 -200 472 -108 371 -200 b 40 -143 163 -200 100 -176 l 28 -199 b 231 -253 83 -231 163 -253 b 529 38 401 -253 529 -133 b 251 299 529 188 419 299 b 117 279 190 299 151 292 z "},"6":{"ha":681,"x_min":0,"x_max":0,"o":"m 64 319 b 347 -14 64 136 169 -14 b 621 269 514 -14 621 103 b 374 514 621 439 500 514 b 126 407 279 514 193 467 l 125 408 b 568 835 158 589 301 772 l 553 886 b 64 319 213 808 64 540 z m 121 321 b 122 353 121 332 121 342 b 371 464 200 431 278 464 b 564 267 474 464 564 396 b 349 36 564 133 482 36 b 121 321 204 36 121 169 z "},"7":{"ha":585,"x_min":0,"x_max":0,"o":"m 28 601 l 489 601 l 99 -256 l 157 -256 l 551 617 l 551 657 l 32 657 z "},"8":{"ha":657,"x_min":0,"x_max":0,"o":"m 356 456 b 136 654 244 504 136 546 b 329 831 136 743 207 831 b 521 647 444 831 521 751 b 356 456 521 547 440 489 z m 310 419 b 535 213 424 372 535 329 b 329 36 535 114 474 36 b 122 219 190 36 122 108 b 310 419 122 325 215 386 z m 400 435 b 578 656 474 468 578 538 b 329 881 578 799 467 881 b 79 647 190 881 79 788 b 264 440 79 533 165 481 b 65 211 190 411 65 347 b 328 -14 65 92 144 -14 b 592 221 510 -14 592 103 b 400 435 592 339 500 390 z "},"9":{"ha":681,"x_min":0,"x_max":0,"o":"m 617 336 b 333 669 617 519 511 669 b 60 386 167 669 60 553 b 307 142 60 217 181 142 b 554 249 401 142 488 189 l 556 247 b 113 -179 522 67 379 -117 l 128 -231 b 617 336 468 -153 617 115 z m 560 335 b 558 303 560 324 560 314 b 310 192 481 225 403 192 b 117 389 207 192 117 263 b 332 619 117 522 199 619 b 560 335 482 619 560 492 z "}," ":{"ha":172,"x_min":0,"x_max":0,"o":""},"!":{"ha":340,"x_min":0,"x_max":0,"o":"m 136 899 l 156 246 l 188 246 l 206 899 z m 219 39 b 169 89 219 65 199 89 b 121 39 140 89 121 65 b 169 -14 121 11 140 -14 b 219 39 199 -14 219 11 z "},"\"":{"ha":419,"x_min":0,"x_max":0,"o":"m 203 553 l 249 553 l 457 869 l 396 900 z m -1 553 l 44 553 l 253 869 l 192 900 z "},"#":{"ha":786,"x_min":0,"x_max":0,"o":"m 57 522 l 233 522 l 169 286 l 29 286 l 29 239 l 157 239 l 65 -103 l 114 -103 l 206 239 l 461 239 l 369 -103 l 419 -103 l 510 239 l 700 239 l 700 286 l 524 286 l 586 522 l 728 522 l 728 569 l 600 569 l 686 892 l 636 892 l 550 569 l 296 569 l 382 892 l 332 892 l 246 569 l 57 569 z m 282 522 l 538 522 l 474 286 l 218 286 z "},"$":{"ha":661,"x_min":0,"x_max":0,"o":"m 307 38 l 357 408 b 543 218 467 372 543 321 b 321 38 543 122 454 38 z m 393 1014 l 375 881 b 333 882 360 882 349 882 b 71 657 182 882 71 785 b 310 425 71 514 188 465 l 257 42 b 75 114 186 53 126 79 l 53 64 b 250 -10 108 26 172 1 l 228 -171 l 279 -171 l 300 -14 l 318 -14 b 597 224 485 -14 597 89 b 369 464 597 367 488 424 l 418 821 b 560 758 469 810 517 789 l 582 810 b 425 872 539 839 486 861 l 444 1014 z m 368 829 l 321 479 b 126 663 204 521 126 563 b 333 831 126 749 197 831 b 368 829 344 831 357 829 z "},"%":{"ha":1036,"x_min":0,"x_max":0,"o":"m 485 669 b 254 901 485 796 397 901 b 24 669 113 901 24 796 b 254 440 24 547 113 440 b 485 669 397 440 485 547 z m 193 -21 l 908 888 l 846 888 l 129 -21 z m 1013 197 b 782 426 1013 319 924 426 b 551 197 639 426 551 319 b 782 -35 551 71 639 -35 b 1013 197 924 -35 1013 71 z m 435 669 b 254 488 435 572 367 488 b 74 669 142 488 74 572 b 254 854 74 772 142 854 b 435 669 367 854 435 772 z m 963 197 b 782 13 963 94 894 13 b 601 197 669 13 601 94 b 782 379 601 294 669 379 b 963 197 894 379 963 294 z "},"&":{"ha":869,"x_min":0,"x_max":0,"o":"m 338 483 b 179 674 260 517 179 576 b 347 831 179 757 243 831 b 511 679 440 831 511 763 b 338 483 511 586 449 529 z m 579 232 b 304 36 496 111 400 36 b 110 214 186 36 110 121 b 310 444 110 325 206 400 b 579 232 400 410 486 347 z m 607 200 l 778 -17 l 824 11 l 639 242 l 843 535 l 772 535 l 610 275 b 382 465 539 363 460 426 b 568 685 499 508 568 585 b 353 881 568 794 475 881 b 121 671 218 881 121 779 b 271 467 121 575 189 507 b 51 214 147 418 51 342 b 299 -14 51 97 147 -14 b 607 200 419 -14 529 74 z "},"’":{"ha":213,"x_min":0,"x_max":0,"o":"m 44 846 b 118 781 93 833 118 818 b 15 625 118 731 93 682 l 42 601 b 181 808 126 656 181 738 b 101 901 181 865 144 901 b 44 846 68 901 44 872 z "},"(":{"ha":465,"x_min":0,"x_max":0,"o":"m 454 -311 l 485 -262 b 151 325 340 -189 151 29 b 485 913 151 621 340 839 l 454 961 b 96 325 307 883 96 649 b 454 -311 96 1 307 -233 z "},")":{"ha":465,"x_min":0,"x_max":0,"o":"m -19 -262 l 11 -311 b 369 325 158 -233 369 1 b 11 961 369 649 158 883 l -19 913 b 314 325 125 839 314 621 b -19 -262 314 29 125 -189 z "},"*":{"ha":464,"x_min":0,"x_max":0,"o":"m 57 497 l 217 638 l 221 636 l 275 432 l 332 450 l 249 644 l 253 649 l 456 631 l 456 693 l 253 675 l 249 679 l 332 874 l 275 892 l 221 688 l 217 686 l 57 826 l 22 778 l 197 665 l 197 658 l 22 546 z "},"+":{"ha":678,"x_min":0,"x_max":0,"o":"m 368 300 l 619 300 l 615 353 l 368 353 l 368 613 l 313 613 l 313 353 l 63 353 l 58 300 l 313 300 l 313 38 l 368 38 z "},",":{"ha":213,"x_min":0,"x_max":0,"o":"m 44 39 b 118 -26 93 26 118 11 b 15 -182 118 -76 93 -125 l 42 -206 b 181 1 126 -151 181 -69 b 101 94 181 58 144 94 b 44 39 68 94 44 65 z "},"-":{"ha":381,"x_min":0,"x_max":0,"o":"m 50 311 l 335 311 l 335 364 l 50 364 z "},".":{"ha":213,"x_min":0,"x_max":0,"o":"m 156 39 b 106 89 156 65 135 89 b 57 39 76 89 57 65 b 106 -14 57 11 76 -14 b 156 39 135 -14 156 11 z "},"/":{"ha":274,"x_min":0,"x_max":0,"o":"m -19 -276 l 319 975 l 267 975 l -71 -276 z "},":":{"ha":213,"x_min":0,"x_max":0,"o":"m 156 496 b 106 546 156 522 135 546 b 57 496 76 546 57 522 b 106 443 57 468 76 443 b 156 496 135 443 156 468 z m 156 39 b 106 89 156 65 135 89 b 57 39 76 89 57 65 b 106 -14 57 11 76 -14 b 156 39 135 -14 156 11 z "},";":{"ha":213,"x_min":0,"x_max":0,"o":"m 156 496 b 106 546 156 522 135 546 b 57 496 76 546 57 522 b 106 443 57 468 76 443 b 156 496 135 443 156 468 z m 44 39 b 118 -26 93 26 118 11 b 15 -182 118 -76 93 -125 l 42 -206 b 181 1 126 -151 181 -69 b 101 94 181 58 144 94 b 44 39 68 94 44 65 z "},"<":{"ha":607,"x_min":0,"x_max":0,"o":"m 550 26 l 550 83 l 99 319 l 99 332 l 550 568 l 550 626 l 49 360 l 49 293 z "},"=":{"ha":594,"x_min":0,"x_max":0,"o":"m 54 417 l 542 417 l 546 469 l 50 469 z m 50 182 l 546 182 l 542 235 l 54 235 z "},">":{"ha":607,"x_min":0,"x_max":0,"o":"m 67 26 l 568 293 l 568 360 l 67 626 l 67 568 l 518 332 l 518 319 l 67 83 z "},"?":{"ha":474,"x_min":0,"x_max":0,"o":"m 417 657 b 167 888 417 764 335 888 b 75 875 129 888 99 881 l 75 824 b 169 838 107 833 132 838 b 364 656 288 838 364 750 b 240 511 364 576 313 542 b 111 369 158 476 111 440 b 217 236 111 318 160 271 l 251 250 b 161 369 194 288 161 325 b 271 468 161 413 194 433 b 417 657 349 506 417 546 z m 250 39 b 200 89 250 65 229 89 b 151 39 171 89 151 65 b 200 -14 151 11 171 -14 b 250 39 229 -14 250 11 z "},"@":{"ha":1158,"x_min":0,"x_max":0,"o":"m 749 290 l 817 617 l 754 576 b 610 631 717 604 671 631 b 325 301 458 631 325 481 b 519 74 325 174 401 74 b 694 176 579 74 632 99 b 850 74 713 122 768 74 b 1096 425 974 74 1096 197 b 597 878 1096 703 864 878 b 68 336 301 878 68 632 b 554 -167 68 54 271 -167 b 735 -139 610 -167 675 -157 l 726 -100 b 557 -129 681 -115 611 -129 b 113 338 296 -129 113 79 b 597 842 113 607 326 842 b 1051 425 831 842 1051 676 b 853 118 1051 222 949 118 b 749 290 769 118 725 178 z m 743 524 l 681 214 b 532 122 632 149 581 122 b 383 301 436 122 383 201 b 604 585 383 453 486 585 b 743 524 664 585 711 556 z "},"A":{"ha":800,"x_min":0,"x_max":0,"o":"m 765 0 l 439 868 l 367 868 l 35 0 l 93 0 l 194 271 l 604 271 l 706 0 z m 401 817 l 583 324 l 215 324 z "},"B":{"ha":742,"x_min":0,"x_max":0,"o":"m 469 440 b 654 646 603 463 654 565 b 367 868 654 775 574 868 l 114 868 l 114 0 l 381 0 b 682 238 596 0 682 101 b 469 440 682 343 610 422 z m 596 642 b 356 461 596 521 493 461 l 172 461 l 172 815 l 364 815 b 596 642 529 815 596 747 z m 624 239 b 382 53 624 132 560 53 l 172 53 l 172 408 l 356 408 b 624 239 544 408 624 340 z "},"C":{"ha":793,"x_min":0,"x_max":0,"o":"m 713 763 l 731 813 b 471 882 675 846 583 882 b 68 432 238 882 68 706 b 469 -14 68 158 221 -14 b 725 56 575 -14 665 17 l 711 110 b 471 39 651 67 565 39 b 128 432 264 39 128 188 b 468 829 128 689 279 829 b 713 763 561 829 651 801 z "},"D":{"ha":849,"x_min":0,"x_max":0,"o":"m 783 440 b 324 868 783 693 604 868 l 114 868 l 114 0 l 315 0 b 783 440 608 0 783 158 z m 724 435 b 318 53 724 172 556 53 l 172 53 l 172 815 l 318 815 b 724 435 572 815 724 664 z "},"E":{"ha":681,"x_min":0,"x_max":0,"o":"m 114 0 l 611 0 l 611 53 l 172 53 l 172 408 l 539 408 l 539 460 l 172 460 l 172 815 l 611 815 l 611 868 l 114 868 z "},"F":{"ha":643,"x_min":0,"x_max":0,"o":"m 114 868 l 114 0 l 172 0 l 172 394 l 526 394 l 526 447 l 172 447 l 172 814 l 599 814 l 599 868 z "},"G":{"ha":847,"x_min":0,"x_max":0,"o":"m 756 74 l 756 419 l 439 419 l 439 368 l 699 368 l 699 101 b 471 39 639 64 561 39 b 128 432 264 39 128 188 b 468 829 128 689 279 829 b 713 763 561 829 651 801 l 731 813 b 471 882 675 846 583 882 b 68 432 238 882 68 706 b 469 -14 68 158 221 -14 b 756 74 575 -14 676 17 z "},"H":{"ha":886,"x_min":0,"x_max":0,"o":"m 714 0 l 772 0 l 772 868 l 714 868 l 714 461 l 172 461 l 172 868 l 114 868 l 114 0 l 172 0 l 172 410 l 714 410 z "},"I":{"ha":289,"x_min":0,"x_max":0,"o":"m 115 0 l 174 0 l 174 868 l 115 868 z "},"J":{"ha":568,"x_min":0,"x_max":0,"o":"m 475 269 l 475 868 l 417 868 l 417 271 b 218 38 417 119 347 38 b 32 97 153 38 89 63 l 19 40 b 215 -14 63 14 136 -14 b 475 269 394 -14 475 93 z "},"K":{"ha":729,"x_min":0,"x_max":0,"o":"m 174 449 l 172 449 l 172 868 l 114 868 l 114 0 l 172 0 l 172 418 l 174 418 l 618 0 l 696 0 l 231 436 l 688 868 l 610 868 z "},"L":{"ha":640,"x_min":0,"x_max":0,"o":"m 114 0 l 611 0 l 611 54 l 172 54 l 172 868 l 114 868 z "},"M":{"ha":1042,"x_min":0,"x_max":0,"o":"m 868 794 l 888 0 l 946 0 l 919 868 l 839 868 l 524 47 l 206 868 l 124 868 l 94 0 l 154 0 l 174 796 l 485 -1 l 560 -1 z "},"N":{"ha":876,"x_min":0,"x_max":0,"o":"m 707 868 l 707 79 l 182 868 l 114 868 l 114 0 l 169 0 l 169 788 l 699 -8 l 763 -8 l 763 868 z "},"O":{"ha":969,"x_min":0,"x_max":0,"o":"m 901 436 b 486 882 901 697 715 882 b 68 433 246 882 68 704 b 483 -14 68 172 254 -14 b 901 436 724 -14 901 167 z m 842 433 b 488 38 842 201 693 38 b 128 436 283 38 128 204 b 482 831 128 668 276 831 b 842 433 686 831 842 667 z "},"P":{"ha":694,"x_min":0,"x_max":0,"o":"m 640 607 b 308 868 640 767 529 868 l 114 868 l 114 0 l 172 0 l 172 324 l 293 325 b 640 607 508 329 640 422 z m 579 606 b 293 378 579 444 475 382 l 172 376 l 172 815 l 308 815 b 579 606 481 815 579 738 z "},"Q":{"ha":969,"x_min":0,"x_max":0,"o":"m 929 -140 l 633 13 b 901 436 796 71 901 226 b 486 882 901 697 715 882 b 68 433 246 882 68 704 b 483 -14 68 172 254 -14 b 565 -7 511 -14 539 -11 l 903 -190 z m 842 433 b 488 38 842 201 693 38 b 128 436 283 38 128 204 b 482 831 128 668 276 831 b 842 433 686 831 842 667 z "},"R":{"ha":713,"x_min":0,"x_max":0,"o":"m 172 0 l 172 361 l 369 374 l 604 0 l 669 0 l 422 385 b 631 622 529 414 631 492 b 319 868 631 771 536 868 l 114 868 l 114 0 z m 340 419 l 172 414 l 172 815 l 313 815 b 571 621 486 815 571 744 b 340 419 571 499 457 424 z "},"S":{"ha":654,"x_min":0,"x_max":0,"o":"m 319 38 b 74 114 224 38 139 69 l 51 64 b 317 -14 124 15 211 -14 b 597 224 482 -14 597 89 b 350 469 597 374 472 429 b 124 661 221 514 124 556 b 332 831 124 750 194 831 b 558 758 411 831 493 803 l 581 810 b 332 882 515 853 432 882 b 68 657 182 882 68 785 b 311 424 68 517 192 464 b 543 218 440 379 543 336 b 319 38 543 122 454 38 z "},"T":{"ha":750,"x_min":0,"x_max":0,"o":"m 404 814 l 711 814 l 711 868 l 39 868 l 39 814 l 346 814 l 346 0 l 404 0 z "},"U":{"ha":814,"x_min":0,"x_max":0,"o":"m 721 328 l 721 868 l 664 868 l 664 329 b 407 38 664 144 581 38 b 150 318 236 38 150 144 l 150 868 l 93 868 l 93 314 b 406 -14 93 108 204 -14 b 721 328 611 -14 721 121 z "},"V":{"ha":760,"x_min":0,"x_max":0,"o":"m 414 0 l 732 868 l 674 868 l 381 57 l 88 868 l 28 868 l 344 0 z "},"W":{"ha":1239,"x_min":0,"x_max":0,"o":"m 372 0 l 622 806 l 874 0 l 928 0 l 1168 868 l 1107 868 l 901 90 l 660 868 l 586 868 l 349 90 l 131 868 l 71 868 l 318 0 z "},"X":{"ha":763,"x_min":0,"x_max":0,"o":"m 88 0 l 379 413 l 674 0 l 742 0 l 415 449 l 721 868 l 654 868 l 382 483 l 110 868 l 43 868 l 346 447 l 19 0 z "},"Y":{"ha":704,"x_min":0,"x_max":0,"o":"m 382 353 l 685 868 l 621 868 l 354 408 l 85 868 l 19 868 l 324 351 l 324 0 l 382 0 z "},"Z":{"ha":692,"x_min":0,"x_max":0,"o":"m 36 0 l 646 0 l 646 51 l 108 51 l 647 826 l 647 868 l 57 868 l 57 817 l 575 817 l 36 42 z "},"[":{"ha":568,"x_min":0,"x_max":0,"o":"m 158 -308 l 499 -308 l 499 -258 l 217 -258 l 217 888 l 499 888 l 499 938 l 158 938 z "},"\\":{"ha":274,"x_min":0,"x_max":0,"o":"m 10 975 l -43 975 l 296 -276 l 347 -276 z "},"]":{"ha":568,"x_min":0,"x_max":0,"o":"m 69 -258 l 69 -308 l 410 -308 l 410 938 l 69 938 l 69 888 l 351 888 l 351 -258 z "},"^":{"ha":499,"x_min":0,"x_max":0,"o":"m 422 715 l 468 715 l 313 961 l 243 961 l 88 715 l 133 715 l 276 915 l 279 915 z "},"_":{"ha":596,"x_min":0,"x_max":0,"o":"m -12 -53 l 608 -53 l 608 0 l -12 0 z "},"‘":{"ha":213,"x_min":0,"x_max":0,"o":"m 168 654 b 94 719 119 667 94 682 b 197 875 94 769 119 818 l 171 899 b 32 692 86 844 32 763 b 111 599 32 635 68 599 b 168 654 144 599 168 628 z "},"a":{"ha":593,"x_min":0,"x_max":0,"o":"m 439 338 l 439 135 b 253 36 399 86 332 36 b 104 160 171 36 104 81 b 439 338 104 253 190 311 z m 444 86 l 446 86 b 558 -11 450 15 496 -15 l 563 32 b 496 99 506 31 496 60 l 496 443 b 288 650 496 593 410 650 b 56 572 210 650 115 615 l 69 515 b 283 597 121 556 206 597 b 439 438 393 597 439 536 l 439 379 b 47 154 146 361 47 272 b 246 -14 47 54 133 -14 b 444 86 326 -14 407 38 z "},"b":{"ha":693,"x_min":0,"x_max":0,"o":"m 638 333 b 364 643 638 521 521 643 b 160 561 274 643 200 597 l 160 954 l 103 938 l 103 -19 l 158 35 b 332 -14 201 8 267 -14 b 638 333 508 -14 638 124 z m 579 328 b 336 38 579 150 479 38 b 160 90 271 38 200 58 l 160 511 b 354 592 208 557 276 592 b 579 328 492 592 579 475 z "},"c":{"ha":618,"x_min":0,"x_max":0,"o":"m 553 40 l 539 92 b 369 39 493 63 431 39 b 119 318 219 39 119 156 b 363 597 119 479 219 597 b 540 546 433 597 494 575 l 554 597 b 363 650 504 631 439 650 b 61 315 188 650 61 508 b 369 -14 61 122 189 -14 b 553 40 436 -14 501 8 z "},"d":{"ha":697,"x_min":0,"x_max":0,"o":"m 539 936 l 539 594 b 367 643 496 621 429 643 b 61 308 190 643 61 513 b 347 -14 61 114 183 -14 b 539 63 431 -14 500 25 l 539 0 l 596 0 l 596 954 z m 539 539 l 539 118 b 351 36 490 72 422 36 b 119 308 211 36 119 154 b 363 592 119 479 219 592 b 539 539 428 592 499 571 z "},"e":{"ha":639,"x_min":0,"x_max":0,"o":"m 119 318 l 119 328 l 553 331 b 567 431 560 358 567 399 b 346 650 567 567 472 650 b 61 315 179 650 61 508 b 350 -14 61 122 176 -14 b 544 40 428 -14 494 8 l 532 92 b 354 39 486 63 426 39 b 119 318 208 39 119 157 z m 504 379 l 124 379 b 344 597 144 508 226 597 b 508 426 446 597 508 526 b 504 379 508 411 507 394 z "},"f":{"ha":388,"x_min":0,"x_max":0,"o":"m 379 890 l 393 942 b 286 967 365 957 326 967 b 113 751 189 967 117 911 l 111 631 l 25 619 l 21 583 l 113 578 l 113 0 l 169 0 l 169 581 l 363 581 l 367 629 l 169 629 l 169 754 b 285 915 169 861 208 915 b 379 890 324 915 350 906 z "},"g":{"ha":639,"x_min":0,"x_max":0,"o":"m 121 413 b 301 603 121 522 186 603 b 481 414 418 603 481 519 b 300 228 481 308 411 228 b 121 413 185 228 121 313 z m 215 -6 b 367 -8 260 -10 322 -8 b 564 -125 493 -8 564 -42 b 297 -297 564 -219 442 -297 b 65 -154 147 -297 65 -237 b 215 -6 65 -92 126 -28 z m 153 8 b 13 -160 75 -18 13 -87 b 292 -344 13 -265 117 -344 b 618 -118 453 -344 618 -257 b 367 44 618 -22 546 44 l 261 44 b 118 115 154 44 118 72 b 197 203 118 156 157 182 b 296 182 224 192 258 182 b 538 417 432 182 538 272 b 478 572 538 471 515 535 l 636 565 l 632 624 l 443 613 b 306 650 411 633 371 650 b 65 413 172 650 65 558 b 164 221 65 325 110 258 b 61 103 113 197 61 157 b 153 8 61 54 97 24 z "},"h":{"ha":683,"x_min":0,"x_max":0,"o":"m 529 0 l 586 0 l 586 435 b 386 650 586 575 513 650 b 160 540 325 650 233 617 l 160 954 l 103 936 l 103 0 l 160 0 l 160 488 b 379 597 231 558 307 597 b 529 422 483 597 529 535 z "},"i":{"ha":268,"x_min":0,"x_max":0,"o":"m 175 832 b 133 874 175 853 160 874 b 93 832 107 874 93 853 b 133 788 93 810 107 788 b 175 832 160 788 175 810 z m 106 0 l 163 0 l 163 650 l 106 632 z "},"j":{"ha":268,"x_min":0,"x_max":0,"o":"m 175 832 b 133 874 175 853 160 874 b 93 832 107 874 93 853 b 133 788 93 810 107 788 b 175 832 160 788 175 810 z m -31 -308 l 10 -349 b 163 -64 119 -292 163 -208 l 163 650 l 106 632 l 106 -56 b -31 -308 106 -189 76 -249 z "},"k":{"ha":572,"x_min":0,"x_max":0,"o":"m 160 321 l 163 321 l 471 0 l 546 0 l 224 331 l 544 636 l 471 636 l 163 340 l 160 340 l 160 954 l 103 936 l 103 0 l 160 0 z "},"l":{"ha":261,"x_min":0,"x_max":0,"o":"m 103 0 l 160 0 l 160 954 l 103 936 z "},"m":{"ha":1051,"x_min":0,"x_max":0,"o":"m 897 0 l 954 0 l 954 435 b 754 650 954 575 881 650 b 536 544 694 650 608 618 b 357 650 504 615 442 650 b 160 564 303 650 228 624 l 160 650 l 103 632 l 103 0 l 160 0 l 160 514 b 350 597 221 568 288 597 b 500 422 454 597 500 535 l 500 0 l 557 0 l 557 428 b 550 506 557 460 554 485 b 747 597 613 563 682 597 b 897 422 851 597 897 535 z "},"n":{"ha":683,"x_min":0,"x_max":0,"o":"m 529 0 l 586 0 l 586 435 b 386 650 586 575 513 650 b 160 539 325 650 233 615 l 160 650 l 103 632 l 103 0 l 160 0 l 160 488 b 379 597 231 558 307 597 b 529 422 483 597 529 535 z "},"o":{"ha":742,"x_min":0,"x_max":0,"o":"m 681 321 b 374 650 681 522 546 650 b 61 315 201 650 61 515 b 368 -14 61 114 196 -14 b 681 321 540 -14 681 121 z m 624 318 b 371 38 624 156 515 38 b 118 318 225 38 118 144 b 371 599 118 481 226 599 b 624 318 515 599 624 492 z "},"p":{"ha":699,"x_min":0,"x_max":0,"o":"m 160 567 l 160 657 l 103 640 l 103 -324 l 160 -324 l 160 35 b 332 -14 203 8 269 -14 b 638 321 508 -14 638 117 b 351 643 638 515 515 643 b 160 567 268 643 199 604 z m 160 90 l 160 511 b 347 592 208 557 276 592 b 579 321 488 592 579 475 b 336 38 579 150 479 38 b 160 90 271 38 200 58 z "},"q":{"ha":697,"x_min":0,"x_max":0,"o":"m 539 -324 l 596 -324 l 596 650 l 540 594 b 367 643 497 621 432 643 b 61 308 190 643 61 513 b 347 -14 61 114 183 -14 b 539 63 431 -14 500 25 z m 539 539 l 539 118 b 351 38 490 72 422 38 b 119 308 211 38 119 154 b 363 592 119 479 219 592 b 539 539 428 592 499 571 z "},"r":{"ha":458,"x_min":0,"x_max":0,"o":"m 160 0 l 160 400 b 350 597 214 544 278 597 b 443 572 390 597 422 585 l 460 624 b 356 650 433 639 396 650 b 160 492 268 650 197 586 l 160 650 l 103 632 l 103 0 z "},"s":{"ha":517,"x_min":0,"x_max":0,"o":"m 457 165 b 275 349 457 283 363 319 b 108 485 192 379 108 400 b 251 601 108 556 164 601 b 418 553 311 601 364 582 l 438 604 b 257 650 388 631 324 650 b 57 478 147 650 57 592 b 236 303 57 372 151 332 b 406 160 321 274 406 251 b 244 36 406 79 325 36 b 67 93 179 36 121 58 l 49 40 b 242 -14 99 8 169 -14 b 457 165 358 -14 457 54 z "},"t":{"ha":443,"x_min":0,"x_max":0,"o":"m 400 19 l 389 68 b 260 31 350 47 306 31 b 157 181 183 31 153 75 l 168 581 l 392 581 l 396 629 l 169 629 l 174 782 l 118 782 l 114 631 l 29 619 l 25 583 l 113 578 l 101 182 b 258 -21 97 53 140 -21 b 400 19 304 -21 357 -7 z "},"u":{"ha":682,"x_min":0,"x_max":0,"o":"m 154 636 l 97 636 l 97 201 b 297 -14 97 61 171 -14 b 524 99 358 -14 450 22 l 524 -14 l 581 4 l 581 636 l 524 636 l 524 149 b 304 39 453 78 376 39 b 154 214 200 39 154 101 z "},"v":{"ha":564,"x_min":0,"x_max":0,"o":"m 307 -1 l 557 636 l 497 636 l 285 81 l 68 636 l 7 636 l 258 -1 z "},"w":{"ha":889,"x_min":0,"x_max":0,"o":"m 215 -1 l 261 -1 l 453 550 l 636 -1 l 685 -1 l 871 636 l 811 636 l 661 90 l 478 636 l 428 636 l 242 93 l 82 636 l 22 636 z "},"x":{"ha":519,"x_min":0,"x_max":0,"o":"m 444 0 l 510 0 l 289 331 l 493 636 l 432 636 l 260 369 l 88 636 l 25 636 l 231 328 l 10 0 l 74 0 l 260 288 z "},"y":{"ha":564,"x_min":0,"x_max":0,"o":"m 317 21 l 557 636 l 497 636 l 285 79 l 68 636 l 7 636 l 256 6 l 208 -122 b 68 -279 160 -251 117 -279 b -25 -254 31 -279 4 -269 l -42 -306 b 68 -331 -10 -321 19 -331 b 257 -142 144 -331 201 -292 z "},"z":{"ha":519,"x_min":0,"x_max":0,"o":"m 29 0 l 486 0 l 486 49 l 97 49 l 486 597 l 486 636 l 42 636 l 42 588 l 418 588 l 29 39 z "},"{":{"ha":450,"x_min":0,"x_max":0,"o":"m 429 -318 l 429 -271 b 194 -154 256 -258 194 -225 b 269 135 194 -69 269 51 b 74 321 269 222 215 314 l 74 322 b 269 507 215 329 269 422 b 194 801 269 590 194 713 b 429 914 194 868 256 901 l 429 961 b 136 794 242 950 136 910 b 211 499 136 679 211 590 b 26 358 211 404 165 369 l 22 322 l 26 286 b 211 144 165 275 211 238 b 136 -151 211 56 136 -33 b 429 -318 136 -267 242 -307 z "},"|":{"ha":372,"x_min":0,"x_max":0,"o":"m 157 975 l 157 -276 l 215 -276 l 215 975 z "},"}":{"ha":450,"x_min":0,"x_max":0,"o":"m 424 283 l 426 319 l 424 356 b 238 497 285 367 238 404 b 314 793 238 586 314 675 b 19 960 314 908 208 949 l 19 913 b 256 797 193 897 256 868 b 181 507 256 713 181 590 b 376 321 181 419 235 328 l 376 319 b 181 135 235 313 181 219 b 256 -160 181 53 256 -72 b 19 -272 256 -228 193 -257 l 19 -319 b 314 -153 208 -308 314 -268 b 238 143 314 -37 238 51 b 424 283 238 238 285 272 z "},"~":{"ha":499,"x_min":0,"x_max":0,"o":"m 490 388 l 454 388 b 382 292 428 308 411 292 b 178 394 335 292 251 394 b 65 250 121 394 83 346 l 100 250 b 174 346 128 329 142 346 b 378 243 225 346 304 243 b 490 388 435 243 472 292 z "},"¡":{"ha":340,"x_min":0,"x_max":0,"o":"m 121 829 b 171 779 121 803 142 779 b 219 829 200 779 219 803 b 171 882 219 857 200 882 b 121 829 142 882 121 857 z m 204 -31 l 185 622 l 153 622 l 135 -31 z "},"¢":{"ha":618,"x_min":0,"x_max":0,"o":"m 431 644 l 449 779 l 397 779 l 379 650 l 363 650 b 61 315 188 650 61 508 b 292 -4 61 150 153 29 b 281 -87 292 -6 286 -44 l 269 -171 l 321 -171 b 332 -92 325 -142 328 -115 b 342 -12 338 -53 342 -14 b 369 -14 351 -14 360 -14 b 553 40 436 -14 501 8 l 539 92 b 369 39 493 63 431 39 l 349 39 l 424 592 b 540 546 468 582 508 567 l 554 597 b 431 644 518 621 476 636 z m 363 597 l 372 597 l 299 47 b 119 318 188 79 119 181 b 363 597 119 479 219 597 z "},"£":{"ha":665,"x_min":0,"x_max":0,"o":"m 182 440 l 49 440 l 53 389 l 183 389 b 188 231 186 335 188 282 b 22 25 188 122 151 69 l 35 -24 b 215 96 135 8 188 44 b 461 -19 289 25 378 -19 b 649 172 556 -19 631 46 l 607 182 b 453 31 579 64 524 31 b 232 139 397 31 296 79 b 243 236 242 167 243 199 b 240 389 243 290 242 340 l 504 389 l 508 440 l 238 440 b 232 614 233 508 232 568 b 418 838 232 746 281 838 b 579 796 489 838 533 819 l 596 846 b 422 890 544 875 488 890 b 176 601 254 890 176 779 b 182 440 176 556 178 500 z "},"⁄":{"ha":807,"x_min":0,"x_max":0,"o":"m 78 -21 l 793 888 l 731 888 l 14 -21 z "},"¥":{"ha":760,"x_min":0,"x_max":0,"o":"m 81 368 l 324 368 l 324 232 l 81 232 l 76 182 l 324 182 l 324 0 l 382 0 l 382 182 l 628 182 l 624 232 l 382 232 l 382 368 l 624 368 l 628 418 l 407 418 b 546 643 408 418 476 531 l 685 868 l 622 868 l 354 418 l 83 868 l 19 868 l 297 418 l 76 418 z "},"ƒ":{"ha":503,"x_min":0,"x_max":0,"o":"m 186 496 l 122 168 b 4 28 107 90 83 49 l 17 -24 b 175 161 111 -1 153 51 l 240 496 l 410 496 l 415 546 l 250 546 l 278 674 b 410 824 299 767 339 824 b 515 788 453 824 486 808 l 539 836 b 414 876 506 863 460 876 b 221 676 324 876 254 825 l 196 547 l 58 536 l 54 501 z "},"§":{"ha":650,"x_min":0,"x_max":0,"o":"m 621 393 b 381 590 621 515 497 557 b 178 728 276 624 178 649 b 325 843 178 799 238 843 b 492 797 385 843 438 825 l 511 846 b 331 892 461 872 397 892 b 125 721 222 892 125 838 b 214 596 125 660 160 624 b 29 414 111 574 29 507 b 261 229 29 304 146 263 b 472 81 368 196 472 167 b 307 -42 472 4 390 -42 b 129 13 242 -42 183 -21 l 111 -37 b 304 -92 161 -69 232 -92 b 525 86 421 -92 525 -26 b 444 214 525 147 493 186 b 621 393 543 239 621 301 z m 568 386 b 403 236 568 308 476 263 b 82 422 269 292 82 306 b 261 574 82 500 185 549 b 568 386 392 525 568 506 z "},"¤":{"ha":703,"x_min":0,"x_max":0,"o":"m 54 521 l 147 521 b 143 432 144 493 143 464 b 146 350 143 403 144 376 l 54 350 l 50 301 l 151 301 b 460 -21 181 97 281 -21 b 654 18 543 -21 604 -6 l 646 68 b 463 29 596 44 539 29 b 208 301 317 29 235 122 l 504 301 l 500 350 l 203 350 b 200 438 201 378 200 406 b 203 521 200 467 201 494 l 542 521 l 546 569 l 208 569 b 468 840 235 749 319 840 b 644 797 535 840 594 824 l 657 849 b 468 890 608 875 546 890 b 153 569 290 890 185 769 l 50 569 z "},"'":{"ha":240,"x_min":0,"x_max":0,"o":"m -1 553 l 44 553 l 253 869 l 192 900 z "},"“":{"ha":463,"x_min":0,"x_max":0,"o":"m 418 654 b 344 719 369 667 344 682 b 447 875 344 769 369 818 l 421 899 b 282 692 336 844 282 763 b 361 599 282 635 318 599 b 418 654 394 599 418 628 z m 168 654 b 94 719 119 667 94 682 b 197 875 94 769 119 818 l 171 899 b 32 692 86 844 32 763 b 111 599 32 635 68 599 b 168 654 144 599 168 628 z "},"«":{"ha":786,"x_min":0,"x_max":0,"o":"m 717 39 l 728 88 l 451 325 l 451 326 l 728 563 l 717 611 l 400 350 l 400 300 z m 344 53 l 356 101 l 94 325 l 94 326 l 356 549 l 344 597 l 43 349 l 43 301 z "},"‹":{"ha":435,"x_min":0,"x_max":0,"o":"m 361 39 l 372 88 l 96 325 l 96 326 l 372 563 l 361 611 l 44 350 l 44 300 z "},"›":{"ha":435,"x_min":0,"x_max":0,"o":"m 74 39 l 390 300 l 390 350 l 74 611 l 63 563 l 339 326 l 339 325 l 63 88 z "},"ﬁ":{"ha":639,"x_min":0,"x_max":0,"o":"m 169 579 l 476 579 l 476 0 l 533 0 l 533 650 l 468 629 l 169 629 l 169 754 b 285 915 169 861 208 915 b 379 890 324 915 350 906 l 393 942 b 286 967 365 957 326 967 b 113 751 189 967 117 911 l 111 631 l 25 619 l 21 585 l 113 579 l 113 0 l 169 0 z "},"ﬂ":{"ha":635,"x_min":0,"x_max":0,"o":"m 379 890 l 393 942 b 286 967 365 957 326 967 b 113 751 189 967 117 911 l 111 631 l 25 619 l 21 585 l 113 579 l 113 0 l 169 0 l 169 579 l 363 579 l 367 629 l 169 629 l 169 754 b 285 915 169 861 208 915 b 379 890 324 915 350 906 z m 476 0 l 533 0 l 533 954 l 476 936 z "},"–":{"ha":594,"x_min":0,"x_max":0,"o":"m 44 311 l 551 311 l 547 364 l 49 364 z "},"†":{"ha":651,"x_min":0,"x_max":0,"o":"m 53 551 l 297 551 l 297 -175 l 353 -175 l 353 551 l 599 551 l 603 601 l 353 601 l 353 868 l 297 868 l 297 601 l 49 601 z "},"‡":{"ha":651,"x_min":0,"x_max":0,"o":"m 53 572 l 297 572 l 297 119 l 53 119 l 49 69 l 297 69 l 297 -175 l 353 -175 l 353 69 l 603 69 l 599 119 l 353 119 l 353 572 l 599 572 l 603 622 l 353 622 l 353 868 l 297 868 l 297 622 l 49 622 z "},"·":{"ha":213,"x_min":0,"x_max":0,"o":"m 156 318 b 106 368 156 344 135 368 b 57 318 76 368 57 344 b 106 265 57 290 76 265 b 156 318 135 265 156 290 z "},"¶":{"ha":700,"x_min":0,"x_max":0,"o":"m 514 368 l 514 -89 l 569 -89 l 569 868 l 378 868 b 67 606 196 868 67 779 b 390 353 67 463 171 353 b 514 368 424 353 488 361 z "},"•":{"ha":632,"x_min":0,"x_max":0,"o":"m 583 322 b 506 511 583 360 535 486 b 317 589 481 540 354 589 b 128 511 278 589 156 539 b 49 322 100 483 49 361 b 128 132 49 282 101 163 b 315 54 154 106 276 54 b 506 132 356 54 478 104 b 583 322 535 161 583 283 z "},"‚":{"ha":213,"x_min":0,"x_max":0,"o":"m 44 39 b 118 -26 93 26 118 11 b 15 -182 118 -76 93 -125 l 42 -206 b 181 1 126 -151 181 -69 b 101 94 181 58 144 94 b 44 39 68 94 44 65 z "},"„":{"ha":463,"x_min":0,"x_max":0,"o":"m 294 39 b 368 -26 343 26 368 11 b 265 -182 368 -76 343 -125 l 292 -206 b 431 1 376 -151 431 -69 b 351 94 431 58 394 94 b 294 39 318 94 294 65 z m 44 39 b 118 -26 93 26 118 11 b 15 -182 118 -76 93 -125 l 42 -206 b 181 1 126 -151 181 -69 b 101 94 181 58 144 94 b 44 39 68 94 44 65 z "},"”":{"ha":463,"x_min":0,"x_max":0,"o":"m 294 846 b 368 781 343 833 368 818 b 265 625 368 731 343 682 l 292 601 b 431 808 376 656 431 738 b 351 901 431 865 394 901 b 294 846 318 901 294 872 z m 44 846 b 118 781 93 833 118 818 b 15 625 118 731 93 682 l 42 601 b 181 808 126 656 181 738 b 101 901 181 865 144 901 b 44 846 68 901 44 872 z "},"»":{"ha":786,"x_min":0,"x_max":0,"o":"m 442 53 l 744 301 l 744 349 l 442 597 l 431 549 l 693 326 l 693 325 l 431 101 z m 71 39 l 388 300 l 388 350 l 71 611 l 60 563 l 335 326 l 335 325 l 60 88 z "},"…":{"ha":638,"x_min":0,"x_max":0,"o":"m 581 39 b 531 89 581 65 560 89 b 482 39 501 89 482 65 b 531 -14 482 11 501 -14 b 581 39 560 -14 581 11 z m 368 39 b 318 89 368 65 347 89 b 269 39 289 89 269 65 b 318 -14 269 11 289 -14 b 368 39 347 -14 368 11 z m 156 39 b 106 89 156 65 135 89 b 57 39 76 89 57 65 b 106 -14 57 11 76 -14 b 156 39 135 -14 156 11 z "},"‰":{"ha":1551,"x_min":0,"x_max":0,"o":"m 485 669 b 254 901 485 796 397 901 b 24 669 113 901 24 796 b 254 440 24 547 113 440 b 485 669 397 440 485 547 z m 193 -21 l 908 888 l 846 888 l 129 -21 z m 1013 197 b 782 426 1013 319 924 426 b 551 197 639 426 551 319 b 782 -35 551 71 639 -35 b 1013 197 924 -35 1013 71 z m 435 669 b 254 488 435 572 367 488 b 74 669 142 488 74 572 b 254 854 74 772 142 854 b 435 669 367 854 435 772 z m 963 197 b 782 13 963 94 894 13 b 601 197 669 13 601 94 b 782 379 601 294 669 379 b 963 197 894 379 963 294 z m 1528 197 b 1297 426 1528 319 1439 426 b 1067 197 1154 426 1067 319 b 1297 -35 1067 71 1154 -35 b 1528 197 1439 -35 1528 71 z m 1478 197 b 1297 13 1478 94 1410 13 b 1117 197 1185 13 1117 94 b 1297 379 1117 294 1185 379 b 1478 197 1410 379 1478 294 z "},"¿":{"ha":474,"x_min":0,"x_max":0,"o":"m 57 210 b 307 -21 57 106 139 -21 b 399 -8 344 -21 375 -14 l 399 43 b 304 29 367 33 342 29 b 110 211 186 29 110 117 b 233 356 110 293 161 325 b 363 497 315 390 363 426 b 257 631 363 549 314 596 l 222 617 b 313 497 279 579 313 542 b 203 399 313 454 279 436 b 57 210 125 361 57 321 z m 224 828 b 274 778 224 801 244 778 b 322 828 303 778 322 801 b 274 881 322 856 303 881 b 224 828 244 881 224 856 z "},"`":{"ha":554,"x_min":0,"x_max":0,"o":"m 319 715 l 363 715 l 181 961 l 100 961 z "},"´":{"ha":554,"x_min":0,"x_max":0,"o":"m 236 715 l 456 961 l 375 961 l 193 715 z "},"ˆ":{"ha":556,"x_min":0,"x_max":0,"o":"m 422 715 l 468 715 l 313 961 l 243 961 l 88 715 l 133 715 l 276 915 l 279 915 z "},"˜":{"ha":556,"x_min":0,"x_max":0,"o":"m 490 867 l 454 867 b 382 771 428 788 411 771 b 178 874 335 771 251 874 b 65 729 121 874 83 825 l 100 729 b 174 825 128 808 142 825 b 378 722 225 825 304 722 b 490 867 435 722 472 771 z "},"¯":{"ha":556,"x_min":0,"x_max":0,"o":"m 117 740 l 443 740 l 439 793 l 121 793 z "},"˘":{"ha":556,"x_min":0,"x_max":0,"o":"m 468 960 l 428 960 b 278 760 388 815 343 760 b 128 960 213 760 168 815 l 88 960 b 278 714 113 854 158 714 b 468 960 397 714 443 854 z "},"˙":{"ha":556,"x_min":0,"x_max":0,"o":"m 325 832 b 276 881 325 858 306 881 b 229 832 247 881 229 858 b 276 781 229 806 247 781 b 325 832 306 781 325 806 z "},"¨":{"ha":556,"x_min":0,"x_max":0,"o":"m 451 832 b 404 881 451 858 432 881 b 354 832 375 881 354 858 b 404 781 354 806 375 781 b 451 832 432 781 451 806 z m 200 832 b 151 881 200 858 181 881 b 104 832 122 881 104 858 b 151 781 104 806 122 781 b 200 832 181 781 200 806 z "},"˚":{"ha":556,"x_min":0,"x_max":0,"o":"m 435 839 b 279 975 435 913 375 975 b 124 839 183 975 124 913 b 279 704 124 765 183 704 b 435 839 375 704 435 765 z m 386 836 b 279 744 386 785 344 744 b 172 840 214 744 172 789 b 279 935 172 892 214 935 b 386 836 344 935 386 888 z "},"¸":{"ha":556,"x_min":0,"x_max":0,"o":"m 258 -93 l 383 28 l 328 28 l 176 -122 l 181 -144 b 378 -214 292 -121 378 -137 b 207 -317 378 -274 318 -310 l 213 -358 b 428 -210 351 -349 428 -282 b 258 -93 428 -122 349 -86 z "},"˝":{"ha":556,"x_min":0,"x_max":0,"o":"m 336 701 l 524 947 l 456 947 l 292 701 z m 131 701 l 318 947 l 250 947 l 86 701 z "},"˛":{"ha":556,"x_min":0,"x_max":0,"o":"m 421 -285 l 413 -256 b 306 -287 378 -272 349 -287 b 199 -192 246 -287 199 -251 b 394 22 199 -99 272 -37 l 340 22 b 147 -196 244 -15 147 -97 b 294 -331 147 -275 221 -331 b 421 -285 343 -331 388 -312 z "},"ˇ":{"ha":556,"x_min":0,"x_max":0,"o":"m 313 701 l 468 947 l 422 947 l 279 747 l 276 747 l 133 947 l 88 947 l 243 701 z "},"—":{"ha":1247,"x_min":0,"x_max":0,"o":"m 44 311 l 1204 311 l 1200 364 l 49 364 z "},"Æ":{"ha":1115,"x_min":0,"x_max":0,"o":"m 549 310 l 251 310 l 549 821 z m 72 0 l 221 257 l 549 257 l 549 0 l 1046 0 l 1046 53 l 607 53 l 607 408 l 974 408 l 974 461 l 607 461 l 607 815 l 1046 815 l 1046 868 l 514 868 l 14 0 z "},"ª":{"ha":456,"x_min":0,"x_max":0,"o":"m 379 350 l 431 360 b 382 482 404 386 382 422 l 382 704 b 219 882 382 833 318 882 b 36 811 149 882 82 846 l 58 771 b 217 833 99 803 156 833 b 333 700 306 833 333 785 l 333 667 b 33 486 122 651 33 592 b 174 350 33 414 85 350 b 338 426 238 350 307 392 l 339 426 b 379 350 346 390 360 365 z m 333 626 l 333 467 b 182 397 296 426 232 397 b 82 490 128 397 82 431 b 333 626 82 556 142 611 z "},"Ł":{"ha":668,"x_min":0,"x_max":0,"o":"m 200 54 l 200 375 l 408 432 l 408 483 l 200 426 l 200 868 l 142 868 l 142 411 l 22 378 l 22 326 l 142 360 l 142 0 l 625 0 l 625 54 z "},"Ø":{"ha":969,"x_min":0,"x_max":0,"o":"m 901 436 b 726 804 901 597 832 726 l 818 961 l 764 961 l 688 829 b 486 882 628 863 560 882 b 68 433 246 882 68 704 b 243 64 68 272 138 143 b 197 -14 243 65 221 25 b 151 -93 183 -37 168 -64 l 206 -93 l 282 39 b 483 -14 342 6 410 -14 b 901 436 724 -14 901 167 z m 661 783 l 271 113 b 128 436 182 183 128 297 b 482 832 128 668 276 832 b 661 783 549 832 610 815 z m 308 85 l 699 757 b 842 433 788 686 842 572 b 488 36 842 200 693 36 b 308 85 421 36 363 53 z "},"Œ":{"ha":1246,"x_min":0,"x_max":0,"o":"m 1176 815 l 1176 868 l 536 868 b 68 428 243 868 68 710 b 528 0 68 175 247 0 l 1176 0 l 1176 53 l 738 53 l 738 408 l 1104 408 l 1104 461 l 738 461 l 738 815 z m 128 433 b 533 815 128 697 296 815 l 679 815 l 679 53 l 533 53 b 128 433 279 53 128 204 z "},"º":{"ha":592,"x_min":0,"x_max":0,"o":"m 544 619 b 299 882 544 781 438 882 b 49 615 160 882 49 776 b 294 351 49 454 156 351 b 544 619 433 351 544 458 z m 494 617 b 297 396 494 489 413 396 b 99 617 181 396 99 479 b 297 839 99 746 181 839 b 494 617 413 839 494 754 z "},"æ":{"ha":1000,"x_min":0,"x_max":0,"o":"m 468 126 b 711 -14 517 38 601 -14 b 906 40 789 -14 854 8 l 893 92 b 715 39 847 63 788 39 b 481 318 569 39 481 157 l 481 328 l 914 331 b 928 431 921 358 928 399 b 707 650 928 567 833 650 b 472 514 606 650 522 597 b 279 650 451 613 378 650 b 51 563 190 650 107 606 l 78 515 b 275 594 128 554 197 594 b 428 424 388 594 432 531 l 425 367 b 47 147 160 354 47 281 b 224 -14 47 58 111 -14 b 468 126 300 -14 411 43 z m 865 379 l 485 379 b 706 597 506 508 588 597 b 869 426 807 597 869 526 b 865 379 869 411 868 394 z m 422 321 b 450 164 422 264 432 211 b 231 42 382 79 293 42 b 103 151 160 42 103 75 b 422 321 103 238 179 306 z "},"ı":{"ha":268,"x_min":0,"x_max":0,"o":"m 106 0 l 163 0 l 163 650 l 106 632 z "},"ł":{"ha":317,"x_min":0,"x_max":0,"o":"m 188 0 l 188 375 l 307 407 l 307 458 l 188 425 l 188 954 l 131 936 l 131 410 l 11 378 l 11 326 l 131 360 l 131 0 z "},"ø":{"ha":742,"x_min":0,"x_max":0,"o":"m 681 321 b 557 592 681 443 633 536 l 638 731 l 583 731 b 561 692 576 718 569 704 b 517 617 546 669 532 640 b 374 650 474 639 426 650 b 61 315 201 650 61 515 b 185 44 61 193 108 100 l 106 -93 l 160 -93 l 225 19 b 368 -14 268 -3 317 -14 b 681 321 540 -14 681 121 z m 490 569 b 351 331 490 571 422 449 l 213 92 b 118 318 153 140 118 218 b 371 599 118 481 226 599 b 490 569 417 599 456 589 z m 624 318 b 371 38 624 156 515 38 b 251 65 328 38 289 47 l 529 544 b 624 318 589 496 624 418 z "},"œ":{"ha":1200,"x_min":0,"x_max":0,"o":"m 1065 379 l 685 379 b 906 597 706 508 788 597 b 1069 426 1007 597 1069 526 b 1065 379 1069 411 1068 394 z m 118 318 b 371 599 118 481 226 599 b 624 318 515 599 624 492 b 371 38 624 156 515 38 b 118 318 225 38 118 144 z m 649 172 b 911 -14 692 57 783 -14 b 1106 40 989 -14 1054 8 l 1093 92 b 915 39 1047 63 988 39 b 681 318 769 39 681 157 l 681 328 l 1114 331 b 1128 431 1121 358 1128 399 b 907 650 1128 567 1033 650 b 651 465 786 650 694 578 b 374 650 603 582 501 650 b 61 315 201 650 61 515 b 368 -14 61 114 196 -14 b 649 172 494 -14 600 56 z "},"ß":{"ha":786,"x_min":0,"x_max":0,"o":"m 379 890 l 393 942 b 286 967 365 957 326 967 b 113 751 189 967 117 911 l 111 631 l 25 619 l 21 583 l 113 578 l 113 0 l 169 0 l 169 754 b 285 915 169 861 208 915 b 379 890 324 915 350 906 z m 726 165 b 544 349 726 283 632 319 b 378 485 461 379 378 400 b 521 601 378 556 433 601 b 688 553 581 601 633 582 l 707 604 b 526 650 657 631 593 650 b 326 478 417 650 326 592 b 506 303 326 372 421 332 b 675 160 590 274 675 251 b 514 36 675 79 594 36 b 336 93 449 36 390 58 l 318 40 b 511 -14 368 8 439 -14 b 726 165 628 -14 726 54 z "},"¬":{"ha":697,"x_min":0,"x_max":0,"o":"m 539 539 l 539 118 b 351 38 490 72 422 38 b 119 308 211 38 119 154 b 363 592 119 479 219 592 b 539 539 428 592 499 571 z m 347 -14 b 547 72 431 -14 499 29 b 657 -11 554 28 581 -15 l 661 32 b 594 99 604 31 594 60 l 596 650 l 540 594 b 367 643 497 621 432 643 b 61 308 190 643 61 513 b 347 -14 61 114 183 -14 z "},"µ":{"ha":697,"x_min":0,"x_max":0,"o":"m 596 -18 l 596 650 l 540 594 b 367 643 497 621 432 643 b 61 308 190 643 61 513 b 347 -14 61 114 183 -14 b 539 63 431 -14 500 25 l 539 -17 b 331 -279 539 -210 458 -279 b 149 -240 247 -279 192 -261 l 135 -293 b 331 -331 183 -314 240 -331 b 596 -18 492 -331 596 -240 z m 539 539 l 539 118 b 351 38 490 72 422 38 b 119 308 211 38 119 154 b 363 592 119 479 219 592 b 539 539 428 592 499 571 z "},"™":{"ha":1204,"x_min":0,"x_max":0,"o":"m 1054 349 l 1100 349 l 1069 868 l 1000 868 l 821 396 l 817 396 l 653 868 l 581 868 l 549 349 l 596 349 l 621 808 l 625 808 l 786 349 l 846 349 l 1024 808 l 1028 808 z m 276 824 l 472 824 l 472 868 l 32 868 l 32 824 l 229 824 l 229 349 l 276 349 z "},"Ð":{"ha":879,"x_min":0,"x_max":0,"o":"m 464 461 l 200 461 l 200 815 l 346 815 b 751 435 600 815 751 664 b 346 53 751 172 583 53 l 200 53 l 200 410 l 464 410 z m 22 410 l 142 410 l 142 0 l 343 0 b 811 440 636 0 811 158 b 351 868 811 693 632 868 l 142 868 l 142 461 l 22 461 z "},"½":{"ha":1029,"x_min":0,"x_max":0,"o":"m 169 0 l 169 579 l 503 579 l 503 0 l 560 0 l 560 579 l 867 579 l 867 0 l 924 0 l 924 650 l 858 629 l 560 629 l 560 754 b 675 915 560 861 599 915 b 769 890 714 915 740 906 l 783 942 b 676 967 756 957 717 967 b 503 751 579 967 507 911 l 501 631 l 169 629 l 169 740 b 285 901 169 847 208 901 b 379 876 324 901 350 892 l 393 928 b 286 953 365 943 326 953 b 113 738 189 953 113 897 l 111 631 l 25 619 l 21 585 l 113 579 l 113 0 z "},"±":{"ha":1015,"x_min":0,"x_max":0,"o":"m 508 -22 b 963 432 760 -22 963 182 b 508 888 963 682 760 888 b 54 432 257 888 54 682 b 508 -22 54 182 257 -22 z m 925 433 b 508 17 925 206 739 17 b 93 433 279 17 93 206 b 508 851 93 661 279 851 b 925 433 739 851 925 661 z m 707 515 b 515 669 707 608 644 669 l 379 669 l 379 178 l 432 178 l 432 351 l 507 351 b 707 515 631 351 707 406 z m 654 514 b 511 399 654 438 607 399 l 432 399 l 432 622 l 514 622 b 654 514 604 622 654 585 z "},"Þ":{"ha":694,"x_min":0,"x_max":0,"o":"m 640 450 b 308 711 640 610 529 711 l 172 711 l 172 868 l 114 868 l 114 0 l 172 0 l 172 167 l 293 168 b 640 450 508 172 640 265 z m 579 449 b 293 221 579 288 475 225 l 172 219 l 172 658 l 308 658 b 579 449 481 658 579 581 z "},"¼":{"ha":778,"x_min":0,"x_max":0,"o":"m 169 0 l 169 579 l 503 579 l 503 0 l 560 0 l 560 579 l 753 579 l 757 629 l 560 629 l 560 754 b 675 915 560 861 599 915 b 769 890 714 915 740 906 l 783 942 b 676 967 756 957 717 967 b 503 751 579 967 507 911 l 501 631 l 169 629 l 169 740 b 285 901 169 847 208 901 b 379 876 324 901 350 892 l 393 928 b 286 953 365 943 326 953 b 113 738 189 953 117 897 l 111 631 l 25 619 l 21 585 l 113 579 l 113 0 z "},"÷":{"ha":678,"x_min":0,"x_max":0,"o":"m 58 301 l 621 301 l 617 351 l 63 351 z m 390 149 b 340 199 390 175 369 199 b 292 149 311 199 292 175 b 340 96 292 121 311 96 b 390 149 369 96 390 121 z m 390 501 b 340 551 390 528 369 551 b 292 501 311 551 292 528 b 340 449 292 474 311 449 b 390 501 369 449 390 474 z "},"¦":{"ha":521,"x_min":0,"x_max":0,"o":"m 426 250 l 426 868 l 368 868 l 368 254 b 192 38 368 110 310 38 b 32 90 142 38 78 58 l 21 32 b 189 -14 58 10 126 -14 b 426 250 347 -14 426 74 z "},"°":{"ha":471,"x_min":0,"x_max":0,"o":"m 418 701 b 235 888 418 803 350 888 b 51 701 122 888 51 803 b 235 517 51 603 122 517 b 418 701 350 517 418 603 z m 372 701 b 235 561 372 625 322 561 b 97 701 147 561 97 625 b 235 843 97 779 147 843 b 372 701 322 843 372 779 z "},"þ":{"ha":699,"x_min":0,"x_max":0,"o":"m 160 -324 l 160 35 b 332 -14 203 8 269 -14 b 638 321 508 -14 638 117 b 351 643 638 515 515 643 b 160 567 268 643 199 604 l 160 954 l 103 938 l 103 -324 z m 160 90 l 160 511 b 347 592 208 557 276 592 b 579 321 488 592 579 475 b 336 38 579 150 479 38 b 160 90 271 38 200 58 z "},"¾":{"ha":1025,"x_min":0,"x_max":0,"o":"m 867 0 l 924 0 l 924 954 l 867 936 z m 169 0 l 169 579 l 503 579 l 503 0 l 560 0 l 560 579 l 753 579 l 757 629 l 560 629 l 560 754 b 675 915 560 861 599 915 b 769 890 714 915 740 906 l 783 942 b 676 967 756 957 717 967 b 503 751 579 967 507 911 l 501 631 l 169 629 l 169 740 b 285 901 169 847 208 901 b 379 876 324 901 350 892 l 393 928 b 286 953 365 943 326 953 b 113 738 189 953 117 897 l 111 631 l 25 619 l 21 585 l 113 579 l 113 0 z "},"®":{"ha":1015,"x_min":0,"x_max":0,"o":"m 508 -22 b 963 432 760 -22 963 182 b 508 888 963 682 760 888 b 54 432 257 888 54 682 b 508 -22 54 182 257 -22 z m 925 433 b 508 17 925 206 739 17 b 93 433 279 17 93 206 b 508 851 93 661 279 851 b 925 433 739 851 925 661 z m 408 192 l 408 375 l 526 382 l 644 192 l 707 192 l 579 394 b 681 535 639 417 681 463 b 494 683 681 628 621 683 l 356 683 l 356 192 z m 497 425 l 407 421 l 407 636 l 490 636 b 629 532 583 636 629 601 b 497 425 629 467 581 429 z "},"−":{"ha":678,"x_min":0,"x_max":0,"o":"m 58 301 l 621 301 l 617 351 l 63 351 z "},"ð":{"ha":715,"x_min":0,"x_max":0,"o":"m 654 344 b 435 808 654 503 558 671 b 496 825 436 808 464 815 l 557 842 l 544 892 l 394 851 b 261 967 350 896 306 935 l 231 958 l 200 950 b 335 835 249 915 292 875 l 179 793 l 192 743 l 376 793 b 549 547 450 714 510 631 l 547 547 b 357 601 503 574 431 601 b 61 292 196 601 61 488 b 351 -14 61 110 183 -14 b 654 344 556 -14 654 142 z m 597 342 b 353 36 597 158 515 36 b 119 292 217 36 119 146 b 367 550 119 449 210 550 b 572 483 440 550 518 521 b 597 342 589 435 597 388 z "},"×":{"ha":678,"x_min":0,"x_max":0,"o":"m 589 38 l 625 74 l 375 324 l 628 576 l 592 613 l 339 360 l 89 610 l 53 574 l 303 324 l 53 74 l 89 38 l 339 288 z "},"©":{"ha":1015,"x_min":0,"x_max":0,"o":"m 508 -22 b 963 432 760 -22 963 182 b 508 888 963 682 760 888 b 54 432 257 888 54 682 b 508 -22 54 182 257 -22 z m 925 433 b 508 17 925 206 739 17 b 93 433 279 17 93 206 b 508 851 93 661 279 851 b 925 433 739 851 925 661 z m 658 599 l 676 647 b 525 688 639 671 585 688 b 285 431 383 688 285 586 b 524 176 285 274 379 176 b 672 217 581 176 635 190 l 663 271 b 525 226 628 244 579 226 b 342 432 414 226 342 306 b 525 638 342 564 418 638 b 658 599 574 638 618 625 z "},"Á":{"ha":800,"x_min":0,"x_max":0,"o":"m 765 0 l 439 868 l 367 868 l 35 0 l 93 0 l 194 271 l 604 271 l 706 0 z m 401 817 l 583 324 l 215 324 z m 414 947 l 633 1193 l 553 1193 l 371 947 z "},"Â":{"ha":800,"x_min":0,"x_max":0,"o":"m 765 0 l 439 868 l 367 868 l 35 0 l 93 0 l 194 271 l 604 271 l 706 0 z m 401 817 l 583 324 l 215 324 z m 544 947 l 590 947 l 435 1193 l 365 1193 l 210 947 l 256 947 l 399 1147 l 401 1147 z "},"Ä":{"ha":800,"x_min":0,"x_max":0,"o":"m 765 0 l 439 868 l 367 868 l 35 0 l 93 0 l 194 271 l 604 271 l 706 0 z m 401 817 l 583 324 l 215 324 z m 571 1064 b 524 1113 571 1090 551 1113 b 474 1064 494 1113 474 1090 b 524 1013 474 1038 494 1013 b 571 1064 551 1013 571 1038 z m 319 1064 b 271 1113 319 1090 300 1113 b 224 1064 242 1113 224 1090 b 271 1013 224 1038 242 1013 b 319 1064 300 1013 319 1038 z "},"À":{"ha":800,"x_min":0,"x_max":0,"o":"m 765 0 l 439 868 l 367 868 l 35 0 l 93 0 l 194 271 l 604 271 l 706 0 z m 401 817 l 583 324 l 215 324 z m 374 947 l 417 947 l 235 1193 l 154 1193 z "},"Å":{"ha":800,"x_min":0,"x_max":0,"o":"m 403 817 l 585 324 l 217 324 z m 353 832 b 194 417 353 832 272 625 b 35 0 149 294 94 156 l 93 0 l 196 271 l 606 271 l 707 0 l 765 0 l 453 832 b 558 961 519 850 558 901 b 403 1097 558 1035 499 1097 b 247 961 307 1097 247 1035 b 353 832 247 901 286 850 z m 510 958 b 403 867 510 907 468 867 b 296 963 338 867 296 911 b 403 1057 296 1014 338 1057 b 510 958 468 1057 510 1010 z "},"Ã":{"ha":800,"x_min":0,"x_max":0,"o":"m 765 0 l 439 868 l 367 868 l 35 0 l 93 0 l 194 271 l 604 271 l 706 0 z m 401 817 l 583 324 l 215 324 z m 613 1099 l 576 1099 b 504 1003 550 1019 533 1003 b 300 1106 457 1003 374 1106 b 188 961 243 1106 206 1057 l 222 961 b 296 1057 250 1040 264 1057 b 500 954 347 1057 426 954 b 613 1099 557 954 594 1003 z "},"Ç":{"ha":793,"x_min":0,"x_max":0,"o":"m 439 -12 l 329 -122 l 333 -144 b 531 -214 444 -121 531 -137 b 360 -317 531 -274 471 -310 l 365 -358 b 581 -210 504 -349 581 -282 b 411 -93 581 -122 501 -86 l 493 -14 b 725 56 589 -10 671 18 l 711 110 b 471 39 651 67 565 39 b 128 432 264 39 128 188 b 468 829 128 689 279 829 b 713 763 561 829 651 801 l 731 813 b 471 882 675 846 583 882 b 68 432 238 882 68 706 b 439 -12 68 171 210 -1 z "},"É":{"ha":681,"x_min":0,"x_max":0,"o":"m 114 0 l 611 0 l 611 53 l 172 53 l 172 408 l 539 408 l 539 460 l 172 460 l 172 815 l 611 815 l 611 868 l 114 868 z m 338 947 l 557 1193 l 476 1193 l 294 947 z "},"Ê":{"ha":681,"x_min":0,"x_max":0,"o":"m 114 0 l 611 0 l 611 53 l 172 53 l 172 408 l 539 408 l 539 460 l 172 460 l 172 815 l 611 815 l 611 868 l 114 868 z m 514 947 l 560 947 l 404 1193 l 335 1193 l 179 947 l 225 947 l 368 1147 l 371 1147 z "},"Ë":{"ha":681,"x_min":0,"x_max":0,"o":"m 114 0 l 611 0 l 611 53 l 172 53 l 172 408 l 539 408 l 539 460 l 172 460 l 172 815 l 611 815 l 611 868 l 114 868 z m 529 1064 b 482 1113 529 1090 510 1113 b 432 1064 453 1113 432 1090 b 482 1013 432 1038 453 1013 b 529 1064 510 1013 529 1038 z m 278 1064 b 229 1113 278 1090 258 1113 b 182 1064 200 1113 182 1090 b 229 1013 182 1038 200 1013 b 278 1064 258 1013 278 1038 z "},"È":{"ha":681,"x_min":0,"x_max":0,"o":"m 114 0 l 611 0 l 611 53 l 172 53 l 172 408 l 539 408 l 539 460 l 172 460 l 172 815 l 611 815 l 611 868 l 114 868 z m 350 947 l 393 947 l 211 1193 l 131 1193 z "},"Í":{"ha":289,"x_min":0,"x_max":0,"o":"m 115 0 l 174 0 l 174 868 l 115 868 z m 164 947 l 383 1193 l 303 1193 l 121 947 z "},"Î":{"ha":289,"x_min":0,"x_max":0,"o":"m 115 0 l 174 0 l 174 868 l 115 868 z m 289 947 l 335 947 l 179 1193 l 110 1193 l -46 947 l 0 947 l 143 1147 l 146 1147 z "},"Ï":{"ha":289,"x_min":0,"x_max":0,"o":"m 115 0 l 174 0 l 174 868 l 115 868 z m 318 1064 b 271 1113 318 1090 299 1113 b 221 1064 242 1113 221 1090 b 271 1013 221 1038 242 1013 b 318 1064 299 1013 318 1038 z m 67 1064 b 18 1113 67 1090 47 1113 b -29 1064 -11 1113 -29 1090 b 18 1013 -29 1038 -11 1013 b 67 1064 47 1013 67 1038 z "},"Ì":{"ha":289,"x_min":0,"x_max":0,"o":"m 115 0 l 174 0 l 174 868 l 115 868 z m 129 947 l 172 947 l -10 1193 l -90 1193 z "},"Ñ":{"ha":876,"x_min":0,"x_max":0,"o":"m 707 868 l 707 79 l 182 868 l 114 868 l 114 0 l 169 0 l 169 788 l 699 -8 l 763 -8 l 763 868 z m 650 1099 l 614 1099 b 542 1003 588 1019 571 1003 b 338 1106 494 1003 411 1106 b 225 961 281 1106 243 1057 l 260 961 b 333 1057 288 1040 301 1057 b 538 954 385 1057 464 954 b 650 1099 594 954 632 1003 z "},"Ó":{"ha":969,"x_min":0,"x_max":0,"o":"m 901 436 b 486 882 901 697 715 882 b 68 433 246 882 68 704 b 483 -14 68 172 254 -14 b 901 436 724 -14 901 167 z m 842 433 b 488 38 842 201 693 38 b 128 436 283 38 128 204 b 482 831 128 668 276 831 b 842 433 686 831 842 667 z m 494 947 l 714 1193 l 633 1193 l 451 947 z "},"Ô":{"ha":969,"x_min":0,"x_max":0,"o":"m 901 436 b 486 882 901 697 715 882 b 68 433 246 882 68 704 b 483 -14 68 172 254 -14 b 901 436 724 -14 901 167 z m 842 433 b 488 38 842 201 693 38 b 128 436 283 38 128 204 b 482 831 128 668 276 831 b 842 433 686 831 842 667 z m 629 947 l 675 947 l 519 1193 l 450 1193 l 294 947 l 340 947 l 483 1147 l 486 1147 z "},"Ö":{"ha":969,"x_min":0,"x_max":0,"o":"m 901 436 b 486 882 901 697 715 882 b 68 433 246 882 68 704 b 483 -14 68 172 254 -14 b 901 436 724 -14 901 167 z m 842 433 b 488 38 842 201 693 38 b 128 436 283 38 128 204 b 482 831 128 668 276 831 b 842 433 686 831 842 667 z m 658 1064 b 611 1113 658 1090 639 1113 b 561 1064 582 1113 561 1090 b 611 1013 561 1038 582 1013 b 658 1064 639 1013 658 1038 z m 407 1064 b 358 1113 407 1090 388 1113 b 311 1064 329 1113 311 1090 b 358 1013 311 1038 329 1013 b 407 1064 388 1013 407 1038 z "},"Ò":{"ha":969,"x_min":0,"x_max":0,"o":"m 901 436 b 486 882 901 697 715 882 b 68 433 246 882 68 704 b 483 -14 68 172 254 -14 b 901 436 724 -14 901 167 z m 842 433 b 488 38 842 201 693 38 b 128 436 283 38 128 204 b 482 831 128 668 276 831 b 842 433 686 831 842 667 z m 476 947 l 519 947 l 338 1193 l 257 1193 z "},"Õ":{"ha":969,"x_min":0,"x_max":0,"o":"m 901 436 b 486 882 901 697 715 882 b 68 433 246 882 68 704 b 483 -14 68 172 254 -14 b 901 436 724 -14 901 167 z m 842 433 b 488 38 842 201 693 38 b 128 436 283 38 128 204 b 482 831 128 668 276 831 b 842 433 686 831 842 667 z m 697 1099 l 661 1099 b 589 1003 635 1019 618 1003 b 385 1106 542 1003 458 1106 b 272 961 328 1106 290 1057 l 307 961 b 381 1057 335 1040 349 1057 b 585 954 432 1057 511 954 b 697 1099 642 954 679 1003 z "},"Š":{"ha":654,"x_min":0,"x_max":0,"o":"m 319 38 b 74 114 224 38 139 69 l 51 64 b 317 -14 124 15 211 -14 b 597 224 482 -14 597 89 b 350 469 597 374 472 429 b 124 661 221 514 124 556 b 332 831 124 750 194 831 b 558 758 411 831 493 803 l 581 810 b 332 882 515 853 432 882 b 68 657 182 882 68 785 b 311 424 68 517 192 464 b 543 218 440 379 543 336 b 319 38 543 122 454 38 z m 361 933 l 517 1179 l 471 1179 l 328 979 l 325 979 l 182 1179 l 136 1179 l 292 933 z "},"Ú":{"ha":814,"x_min":0,"x_max":0,"o":"m 721 328 l 721 868 l 664 868 l 664 329 b 407 38 664 144 581 38 b 150 318 236 38 150 144 l 150 868 l 93 868 l 93 314 b 406 -14 93 108 204 -14 b 721 328 611 -14 721 121 z m 397 947 l 617 1193 l 536 1193 l 354 947 z "},"Û":{"ha":814,"x_min":0,"x_max":0,"o":"m 721 328 l 721 868 l 664 868 l 664 329 b 407 38 664 144 581 38 b 150 318 236 38 150 144 l 150 868 l 93 868 l 93 314 b 406 -14 93 108 204 -14 b 721 328 611 -14 721 121 z m 551 947 l 597 947 l 442 1193 l 372 1193 l 217 947 l 263 947 l 406 1147 l 408 1147 z "},"Ü":{"ha":814,"x_min":0,"x_max":0,"o":"m 721 328 l 721 868 l 664 868 l 664 329 b 407 38 664 144 581 38 b 150 318 236 38 150 144 l 150 868 l 93 868 l 93 314 b 406 -14 93 108 204 -14 b 721 328 611 -14 721 121 z m 581 1064 b 533 1113 581 1090 561 1113 b 483 1064 504 1113 483 1090 b 533 1013 483 1038 504 1013 b 581 1064 561 1013 581 1038 z m 329 1064 b 281 1113 329 1090 310 1113 b 233 1064 251 1113 233 1090 b 281 1013 233 1038 251 1013 b 329 1064 310 1013 329 1038 z "},"Ù":{"ha":814,"x_min":0,"x_max":0,"o":"m 721 328 l 721 868 l 664 868 l 664 329 b 407 38 664 144 581 38 b 150 318 236 38 150 144 l 150 868 l 93 868 l 93 314 b 406 -14 93 108 204 -14 b 721 328 611 -14 721 121 z m 404 947 l 447 947 l 265 1193 l 185 1193 z "},"Ý":{"ha":704,"x_min":0,"x_max":0,"o":"m 382 353 l 685 868 l 621 868 l 354 408 l 85 868 l 19 868 l 324 351 l 324 0 l 382 0 z m 351 947 l 571 1193 l 490 1193 l 308 947 z "},"Ÿ":{"ha":704,"x_min":0,"x_max":0,"o":"m 382 353 l 685 868 l 621 868 l 354 408 l 85 868 l 19 868 l 324 351 l 324 0 l 382 0 z m 525 1064 b 478 1113 525 1090 506 1113 b 428 1064 449 1113 428 1090 b 478 1013 428 1038 449 1013 b 525 1064 506 1013 525 1038 z m 274 1064 b 225 1113 274 1090 254 1113 b 178 1064 196 1113 178 1090 b 225 1013 178 1038 196 1013 b 274 1064 254 1013 274 1038 z "},"Ž":{"ha":692,"x_min":0,"x_max":0,"o":"m 36 0 l 646 0 l 646 51 l 108 51 l 647 826 l 647 868 l 57 868 l 57 817 l 575 817 l 36 42 z m 392 933 l 547 1179 l 501 1179 l 358 979 l 356 979 l 213 1179 l 167 1179 l 322 933 z "},"á":{"ha":593,"x_min":0,"x_max":0,"o":"m 439 338 l 439 135 b 253 36 399 86 332 36 b 104 160 171 36 104 81 b 439 338 104 253 190 311 z m 444 86 l 446 86 b 558 -11 450 15 496 -15 l 563 32 b 496 99 506 31 496 60 l 496 443 b 288 650 496 593 410 650 b 56 572 210 650 115 615 l 69 515 b 283 597 121 556 206 597 b 439 438 393 597 439 536 l 439 379 b 47 154 146 361 47 272 b 246 -14 47 54 133 -14 b 444 86 326 -14 407 38 z m 261 715 l 481 961 l 400 961 l 218 715 z "},"â":{"ha":593,"x_min":0,"x_max":0,"o":"m 439 338 l 439 135 b 253 36 399 86 332 36 b 104 160 171 36 104 81 b 439 338 104 253 190 311 z m 444 86 l 446 86 b 558 -11 450 15 496 -15 l 563 32 b 496 99 506 31 496 60 l 496 443 b 288 650 496 593 410 650 b 56 572 210 650 115 615 l 69 515 b 283 597 121 556 206 597 b 439 438 393 597 439 536 l 439 379 b 47 154 146 361 47 272 b 246 -14 47 54 133 -14 b 444 86 326 -14 407 38 z m 429 715 l 475 715 l 319 961 l 250 961 l 94 715 l 140 715 l 283 915 l 286 915 z "},"ä":{"ha":593,"x_min":0,"x_max":0,"o":"m 439 338 l 439 135 b 253 36 399 86 332 36 b 104 160 171 36 104 81 b 439 338 104 253 190 311 z m 444 86 l 446 86 b 558 -11 450 15 496 -15 l 563 32 b 496 99 506 31 496 60 l 496 443 b 288 650 496 593 410 650 b 56 572 210 650 115 615 l 69 515 b 283 597 121 556 206 597 b 439 438 393 597 439 536 l 439 379 b 47 154 146 361 47 272 b 246 -14 47 54 133 -14 b 444 86 326 -14 407 38 z m 458 832 b 411 881 458 858 439 881 b 361 832 382 881 361 858 b 411 781 361 806 382 781 b 458 832 439 781 458 806 z m 207 832 b 158 881 207 858 188 881 b 111 832 129 881 111 858 b 158 781 111 806 129 781 b 207 832 188 781 207 806 z "},"à":{"ha":593,"x_min":0,"x_max":0,"o":"m 304 715 l 347 715 l 165 961 l 85 961 z m 439 338 l 439 135 b 253 36 399 86 332 36 b 104 160 171 36 104 81 b 439 338 104 253 190 311 z m 444 86 l 446 86 b 558 -11 450 15 496 -15 l 563 32 b 496 99 506 31 496 60 l 496 443 b 288 650 496 593 410 650 b 56 572 210 650 115 615 l 69 515 b 283 597 121 556 206 597 b 439 438 393 597 439 536 l 439 379 b 47 154 146 361 47 272 b 246 -14 47 54 133 -14 b 444 86 326 -14 407 38 z "},"å":{"ha":593,"x_min":0,"x_max":0,"o":"m 439 338 l 439 135 b 253 36 399 86 332 36 b 104 160 171 36 104 81 b 439 338 104 253 190 311 z m 444 86 l 446 86 b 558 -11 450 15 496 -15 l 563 32 b 496 99 506 31 496 60 l 496 443 b 288 650 496 593 410 650 b 56 572 210 650 115 615 l 69 515 b 283 597 121 556 206 597 b 439 438 393 597 439 536 l 439 379 b 47 154 146 361 47 272 b 246 -14 47 54 133 -14 b 444 86 326 -14 407 38 z m 442 839 b 286 975 442 913 382 975 b 131 839 190 975 131 913 b 286 704 131 765 190 704 b 442 839 382 704 442 765 z m 393 836 b 286 744 393 785 351 744 b 179 840 221 744 179 789 b 286 935 179 892 221 935 b 393 836 351 935 393 888 z "},"ã":{"ha":593,"x_min":0,"x_max":0,"o":"m 439 338 l 439 135 b 253 36 399 86 332 36 b 104 160 171 36 104 81 b 439 338 104 253 190 311 z m 444 86 l 446 86 b 558 -11 450 15 496 -15 l 563 32 b 496 99 506 31 496 60 l 496 443 b 288 650 496 593 410 650 b 56 572 210 650 115 615 l 69 515 b 283 597 121 556 206 597 b 439 438 393 597 439 536 l 439 379 b 47 154 146 361 47 272 b 246 -14 47 54 133 -14 b 444 86 326 -14 407 38 z m 497 867 l 461 867 b 389 771 435 788 418 771 b 185 874 342 771 258 874 b 72 729 128 874 90 825 l 107 729 b 181 825 135 808 149 825 b 385 722 232 825 311 722 b 497 867 442 722 479 771 z "},"ç":{"ha":618,"x_min":0,"x_max":0,"o":"m 339 -12 l 228 -122 l 232 -144 b 429 -214 343 -121 429 -137 b 258 -317 429 -274 369 -310 l 264 -358 b 479 -210 403 -349 479 -282 b 310 -93 479 -122 400 -86 l 393 -12 b 553 40 453 -8 507 13 l 539 92 b 369 39 493 63 431 39 b 119 318 219 39 119 156 b 363 597 119 479 219 597 b 540 546 433 597 494 575 l 554 597 b 363 650 504 631 439 650 b 61 315 188 650 61 508 b 339 -12 61 133 175 3 z "},"é":{"ha":639,"x_min":0,"x_max":0,"o":"m 119 318 l 119 328 l 553 331 b 567 431 560 358 567 399 b 346 650 567 567 472 650 b 61 315 179 650 61 508 b 350 -14 61 122 176 -14 b 544 40 428 -14 494 8 l 532 92 b 354 39 486 63 426 39 b 119 318 208 39 119 157 z m 504 379 l 124 379 b 344 597 144 508 226 597 b 508 426 446 597 508 526 b 504 379 508 411 507 394 z m 339 715 l 558 961 l 478 961 l 296 715 z "},"ê":{"ha":639,"x_min":0,"x_max":0,"o":"m 119 318 l 119 328 l 553 331 b 567 431 560 358 567 399 b 346 650 567 567 472 650 b 61 315 179 650 61 508 b 350 -14 61 122 176 -14 b 544 40 428 -14 494 8 l 532 92 b 354 39 486 63 426 39 b 119 318 208 39 119 157 z m 504 379 l 124 379 b 344 597 144 508 226 597 b 508 426 446 597 508 526 b 504 379 508 411 507 394 z m 464 715 l 510 715 l 354 961 l 285 961 l 129 715 l 175 715 l 318 915 l 321 915 z "},"ë":{"ha":639,"x_min":0,"x_max":0,"o":"m 119 318 l 119 328 l 553 331 b 567 431 560 358 567 399 b 346 650 567 567 472 650 b 61 315 179 650 61 508 b 350 -14 61 122 176 -14 b 544 40 428 -14 494 8 l 532 92 b 354 39 486 63 426 39 b 119 318 208 39 119 157 z m 504 379 l 124 379 b 344 597 144 508 226 597 b 508 426 446 597 508 526 b 504 379 508 411 507 394 z m 499 832 b 451 881 499 858 479 881 b 401 832 422 881 401 858 b 451 781 401 806 422 781 b 499 832 479 781 499 806 z m 247 832 b 199 881 247 858 228 881 b 151 832 169 881 151 858 b 199 781 151 806 169 781 b 247 832 228 781 247 806 z "},"è":{"ha":639,"x_min":0,"x_max":0,"o":"m 119 318 l 119 328 l 553 331 b 567 431 560 358 567 399 b 346 650 567 567 472 650 b 61 315 179 650 61 508 b 350 -14 61 122 176 -14 b 544 40 428 -14 494 8 l 532 92 b 354 39 486 63 426 39 b 119 318 208 39 119 157 z m 504 379 l 124 379 b 344 597 144 508 226 597 b 508 426 446 597 508 526 b 504 379 508 411 507 394 z m 338 715 l 381 715 l 199 961 l 118 961 z "},"í":{"ha":268,"x_min":0,"x_max":0,"o":"m 106 0 l 163 0 l 163 650 l 106 632 z m 149 715 l 368 961 l 288 961 l 106 715 z "},"î":{"ha":268,"x_min":0,"x_max":0,"o":"m 106 0 l 163 0 l 163 650 l 106 632 z m 282 715 l 328 715 l 172 961 l 103 961 l -53 715 l -7 715 l 136 915 l 139 915 z "},"ï":{"ha":268,"x_min":0,"x_max":0,"o":"m 106 0 l 163 0 l 163 650 l 106 632 z m 311 832 b 264 881 311 858 292 881 b 214 832 235 881 214 858 b 264 781 214 806 235 781 b 311 832 292 781 311 806 z m 60 832 b 11 881 60 858 40 881 b -36 832 -18 881 -36 858 b 11 781 -36 806 -18 781 b 60 832 40 781 60 806 z "},"ì":{"ha":268,"x_min":0,"x_max":0,"o":"m 106 0 l 163 0 l 163 650 l 106 632 z m 115 715 l 158 715 l -24 961 l -104 961 z "},"ñ":{"ha":683,"x_min":0,"x_max":0,"o":"m 529 0 l 586 0 l 586 435 b 386 650 586 575 513 650 b 160 539 325 650 233 615 l 160 650 l 103 632 l 103 0 l 160 0 l 160 488 b 379 597 231 558 307 597 b 529 422 483 597 529 535 z m 554 867 l 518 867 b 446 771 492 788 475 771 b 242 874 399 771 315 874 b 129 729 185 874 147 825 l 164 729 b 238 825 192 808 206 825 b 442 722 289 825 368 722 b 554 867 499 722 536 771 z "},"ó":{"ha":742,"x_min":0,"x_max":0,"o":"m 681 321 b 374 650 681 522 546 650 b 61 315 201 650 61 515 b 368 -14 61 114 196 -14 b 681 321 540 -14 681 121 z m 624 318 b 371 38 624 156 515 38 b 118 318 225 38 118 144 b 371 599 118 481 226 599 b 624 318 515 599 624 492 z m 372 715 l 592 961 l 511 961 l 329 715 z "},"ô":{"ha":742,"x_min":0,"x_max":0,"o":"m 681 321 b 374 650 681 522 546 650 b 61 315 201 650 61 515 b 368 -14 61 114 196 -14 b 681 321 540 -14 681 121 z m 624 318 b 371 38 624 156 515 38 b 118 318 225 38 118 144 b 371 599 118 481 226 599 b 624 318 515 599 624 492 z m 515 715 l 561 715 l 406 961 l 336 961 l 181 715 l 226 715 l 369 915 l 372 915 z "},"ö":{"ha":742,"x_min":0,"x_max":0,"o":"m 681 321 b 374 650 681 522 546 650 b 61 315 201 650 61 515 b 368 -14 61 114 196 -14 b 681 321 540 -14 681 121 z m 624 318 b 371 38 624 156 515 38 b 118 318 225 38 118 144 b 371 599 118 481 226 599 b 624 318 515 599 624 492 z m 544 832 b 497 881 544 858 525 881 b 447 832 468 881 447 858 b 497 781 447 806 468 781 b 544 832 525 781 544 806 z m 293 832 b 244 881 293 858 274 881 b 197 832 215 881 197 858 b 244 781 197 806 215 781 b 293 832 274 781 293 806 z "},"ò":{"ha":742,"x_min":0,"x_max":0,"o":"m 681 321 b 374 650 681 522 546 650 b 61 315 201 650 61 515 b 368 -14 61 114 196 -14 b 681 321 540 -14 681 121 z m 624 318 b 371 38 624 156 515 38 b 118 318 225 38 118 144 b 371 599 118 481 226 599 b 624 318 515 599 624 492 z m 371 715 l 414 715 l 232 961 l 151 961 z "},"õ":{"ha":742,"x_min":0,"x_max":0,"o":"m 681 321 b 374 650 681 522 546 650 b 61 315 201 650 61 515 b 368 -14 61 114 196 -14 b 681 321 540 -14 681 121 z m 624 318 b 371 38 624 156 515 38 b 118 318 225 38 118 144 b 371 599 118 481 226 599 b 624 318 515 599 624 492 z m 583 867 l 547 867 b 475 771 521 788 504 771 b 271 874 428 771 344 874 b 158 729 214 874 176 825 l 193 729 b 267 825 221 808 235 825 b 471 722 318 825 397 722 b 583 867 528 722 565 771 z "},"š":{"ha":517,"x_min":0,"x_max":0,"o":"m 457 165 b 275 349 457 283 363 319 b 108 485 192 379 108 400 b 251 601 108 556 164 601 b 418 553 311 601 364 582 l 438 604 b 257 650 388 631 324 650 b 57 478 147 650 57 592 b 236 303 57 372 151 332 b 406 160 321 274 406 251 b 244 36 406 79 325 36 b 67 93 179 36 121 58 l 49 40 b 242 -14 99 8 169 -14 b 457 165 358 -14 457 54 z m 289 701 l 444 947 l 399 947 l 256 747 l 253 747 l 110 947 l 64 947 l 219 701 z "},"ú":{"ha":682,"x_min":0,"x_max":0,"o":"m 154 636 l 97 636 l 97 201 b 297 -14 97 61 171 -14 b 524 99 358 -14 450 22 l 524 -14 l 581 4 l 581 636 l 524 636 l 524 149 b 304 39 453 78 376 39 b 154 214 200 39 154 101 z m 331 715 l 550 961 l 469 961 l 288 715 z "},"û":{"ha":682,"x_min":0,"x_max":0,"o":"m 154 636 l 97 636 l 97 201 b 297 -14 97 61 171 -14 b 524 99 358 -14 450 22 l 524 -14 l 581 4 l 581 636 l 524 636 l 524 149 b 304 39 453 78 376 39 b 154 214 200 39 154 101 z m 485 715 l 531 715 l 375 961 l 306 961 l 150 715 l 196 715 l 339 915 l 342 915 z "},"ü":{"ha":682,"x_min":0,"x_max":0,"o":"m 154 636 l 97 636 l 97 201 b 297 -14 97 61 171 -14 b 524 99 358 -14 450 22 l 524 -14 l 581 4 l 581 636 l 524 636 l 524 149 b 304 39 453 78 376 39 b 154 214 200 39 154 101 z m 508 832 b 461 881 508 858 489 881 b 411 832 432 881 411 858 b 461 781 411 806 432 781 b 508 832 489 781 508 806 z m 257 832 b 208 881 257 858 238 881 b 161 832 179 881 161 858 b 208 781 161 806 179 781 b 257 832 238 781 257 806 z "},"ù":{"ha":682,"x_min":0,"x_max":0,"o":"m 154 636 l 97 636 l 97 201 b 297 -14 97 61 171 -14 b 524 99 358 -14 450 22 l 524 -14 l 581 4 l 581 636 l 524 636 l 524 149 b 304 39 453 78 376 39 b 154 214 200 39 154 101 z m 338 715 l 381 715 l 199 961 l 118 961 z "},"ý":{"ha":564,"x_min":0,"x_max":0,"o":"m 317 21 l 557 636 l 497 636 l 285 79 l 68 636 l 7 636 l 256 6 l 208 -122 b 68 -279 160 -251 117 -279 b -25 -254 31 -279 4 -269 l -42 -306 b 68 -331 -10 -321 19 -331 b 257 -142 144 -331 201 -292 z m 261 715 l 481 961 l 400 961 l 218 715 z "},"ÿ":{"ha":564,"x_min":0,"x_max":0,"o":"m 317 21 l 557 636 l 497 636 l 285 79 l 68 636 l 7 636 l 256 6 l 208 -122 b 68 -279 160 -251 117 -279 b -25 -254 31 -279 4 -269 l -42 -306 b 68 -331 -10 -321 19 -331 b 257 -142 144 -331 201 -292 z m 454 832 b 407 881 454 858 435 881 b 357 832 378 881 357 858 b 407 781 357 806 378 781 b 454 832 435 781 454 806 z m 203 832 b 154 881 203 858 183 881 b 107 832 125 881 107 858 b 154 781 107 806 125 781 b 203 832 183 781 203 806 z "},"ž":{"ha":519,"x_min":0,"x_max":0,"o":"m 29 0 l 486 0 l 486 49 l 97 49 l 486 597 l 486 636 l 42 636 l 42 588 l 418 588 l 29 39 z m 296 701 l 451 947 l 406 947 l 263 747 l 260 747 l 117 947 l 71 947 l 226 701 z "},"ﬀ":{"ha":778,"x_min":0,"x_max":0,"o":"m 169 0 l 169 579 l 503 579 l 503 0 l 560 0 l 560 579 l 753 579 l 757 629 l 560 629 l 560 754 b 675 915 560 861 599 915 b 769 890 714 915 740 906 l 783 942 b 676 967 756 957 717 967 b 503 751 579 967 507 911 l 501 631 l 169 629 l 169 740 b 285 901 169 847 208 901 b 379 876 324 901 350 892 l 393 928 b 286 953 365 943 326 953 b 113 738 189 953 117 897 l 111 631 l 25 619 l 21 585 l 113 579 l 113 0 z "},"ﬃ":{"ha":1029,"x_min":0,"x_max":0,"o":"m 169 0 l 169 579 l 503 579 l 503 0 l 560 0 l 560 579 l 867 579 l 867 0 l 924 0 l 924 650 l 858 629 l 560 629 l 560 754 b 675 915 560 861 599 915 b 769 890 714 915 740 906 l 783 942 b 676 967 756 957 717 967 b 503 751 579 967 507 911 l 501 631 l 169 629 l 169 740 b 285 901 169 847 208 901 b 379 876 324 901 350 892 l 393 928 b 286 953 365 943 326 953 b 113 738 189 953 113 897 l 111 631 l 25 619 l 21 585 l 113 579 l 113 0 z "},"ﬄ":{"ha":1025,"x_min":0,"x_max":0,"o":"m 867 0 l 924 0 l 924 954 l 867 936 z m 169 0 l 169 579 l 503 579 l 503 0 l 560 0 l 560 579 l 753 579 l 757 629 l 560 629 l 560 754 b 675 915 560 861 599 915 b 769 890 714 915 740 906 l 783 942 b 676 967 756 957 717 967 b 503 751 579 967 507 911 l 501 631 l 169 629 l 169 740 b 285 901 169 847 208 901 b 379 876 324 901 350 892 l 393 928 b 286 953 365 943 326 953 b 113 738 189 953 117 897 l 111 631 l 25 619 l 21 585 l 113 579 l 113 0 z "}," ":{"ha":165,"x_min":0,"x_max":0,"o":""},"":{"ha":1053,"x_min":0,"x_max":0,"o":"m 810 206 l 1060 324 l 810 438 l 906 700 l 643 604 l 528 856 l 408 604 l 149 700 l 243 438 l -8 322 l 243 203 l 149 -57 l 408 38 l 525 -212 l 643 39 l 906 -57 z m 738 408 l 921 322 l 738 236 l 807 42 l 614 113 l 525 -75 l 439 113 l 246 42 l 317 233 l 131 321 l 317 408 l 246 601 l 439 532 l 526 717 l 614 532 l 807 601 z "},"€":{"ha":703,"x_min":0,"x_max":0,"o":"m 54 521 l 147 521 b 143 432 144 493 143 464 b 146 350 143 403 144 376 l 54 350 l 50 301 l 151 301 b 460 -21 181 97 281 -21 b 654 18 543 -21 604 -6 l 646 68 b 463 29 596 44 539 29 b 208 301 317 29 235 122 l 504 301 l 500 350 l 203 350 b 200 438 201 378 200 406 b 203 521 200 467 201 494 l 542 521 l 546 569 l 208 569 b 468 840 235 749 319 840 b 644 797 535 840 594 824 l 657 849 b 468 890 608 875 546 890 b 153 569 290 890 185 769 l 50 569 z "}}}
